<?xml version="1.0" encoding="UTF-8"?>
<!--Generator: Apple Native CoreSVG 149-->
<!DOCTYPE svg
PUBLIC "-//W3C//DTD SVG 1.1//EN"
       "http://www.w3.org/Graphics/SVG/1.1/DTD/svg11.dtd">
<svg version="1.1" xmlns="http://www.w3.org/2000/svg" xmlns:xlink="http://www.w3.org/1999/xlink" width="3300" height="2200">
 <!--glyph: "uni100C4D.medium", point size: 100.000000, font version: "Version 16.0d18e1", template writer version: "8"-->
 <g id="Notes">
  <rect height="2200" id="artboard" style="fill:white;opacity:1" width="3300" x="0" y="0"/>
  <line id="" style="fill:none;stroke:black;opacity:1;stroke-width:0.5;" x1="263" x2="3036" y1="292" y2="292"/>
  <text style="stroke:none;fill:black;font-family:-apple-system,&quot;SF Pro Display&quot;,&quot;SF Pro Text&quot;,Helvetica,sans-serif;font-weight:bold;" transform="matrix(1 0 0 1 263 322)">Weight/Scale Variations</text>
  <text style="stroke:none;fill:black;font-family:-apple-system,&quot;SF Pro Display&quot;,&quot;SF Pro Text&quot;,Helvetica,sans-serif;text-anchor:middle;" transform="matrix(1 0 0 1 559.711 322)">Ultralight</text>
  <text style="stroke:none;fill:black;font-family:-apple-system,&quot;SF Pro Display&quot;,&quot;SF Pro Text&quot;,Helvetica,sans-serif;text-anchor:middle;" transform="matrix(1 0 0 1 856.422 322)">Thin</text>
  <text style="stroke:none;fill:black;font-family:-apple-system,&quot;SF Pro Display&quot;,&quot;SF Pro Text&quot;,Helvetica,sans-serif;text-anchor:middle;" transform="matrix(1 0 0 1 1153.13 322)">Light</text>
  <text style="stroke:none;fill:black;font-family:-apple-system,&quot;SF Pro Display&quot;,&quot;SF Pro Text&quot;,Helvetica,sans-serif;text-anchor:middle;" transform="matrix(1 0 0 1 1449.84 322)">Regular</text>
  <text style="stroke:none;fill:black;font-family:-apple-system,&quot;SF Pro Display&quot;,&quot;SF Pro Text&quot;,Helvetica,sans-serif;text-anchor:middle;" transform="matrix(1 0 0 1 1746.56 322)">Medium</text>
  <text style="stroke:none;fill:black;font-family:-apple-system,&quot;SF Pro Display&quot;,&quot;SF Pro Text&quot;,Helvetica,sans-serif;text-anchor:middle;" transform="matrix(1 0 0 1 2043.27 322)">Semibold</text>
  <text style="stroke:none;fill:black;font-family:-apple-system,&quot;SF Pro Display&quot;,&quot;SF Pro Text&quot;,Helvetica,sans-serif;text-anchor:middle;" transform="matrix(1 0 0 1 2339.98 322)">Bold</text>
  <text style="stroke:none;fill:black;font-family:-apple-system,&quot;SF Pro Display&quot;,&quot;SF Pro Text&quot;,Helvetica,sans-serif;text-anchor:middle;" transform="matrix(1 0 0 1 2636.69 322)">Heavy</text>
  <text style="stroke:none;fill:black;font-family:-apple-system,&quot;SF Pro Display&quot;,&quot;SF Pro Text&quot;,Helvetica,sans-serif;text-anchor:middle;" transform="matrix(1 0 0 1 2933.4 322)">Black</text>
  <line id="" style="fill:none;stroke:black;opacity:1;stroke-width:0.5;" x1="263" x2="3036" y1="1903" y2="1903"/>
  <g id="" transform="matrix(1 0 0 1 263 1933)">
   <path d="M9.24805 0.830078C13.5547 0.830078 17.1387-2.74414 17.1387-7.05078C17.1387-11.3574 13.5449-14.9316 9.23828-14.9316C4.94141-14.9316 1.36719-11.3574 1.36719-7.05078C1.36719-2.74414 4.95117 0.830078 9.24805 0.830078ZM9.24805-0.654297C5.70312-0.654297 2.87109-3.49609 2.87109-7.05078C2.87109-10.6055 5.69336-13.4473 9.23828-13.4473C12.793-13.4473 15.6348-10.6055 15.6445-7.05078C15.6543-3.49609 12.8027-0.654297 9.24805-0.654297ZM6.39648-6.31836L8.50586-6.31836L8.50586-4.19922C8.50586-3.75977 8.79883-3.45703 9.22852-3.45703C9.67773-3.45703 9.9707-3.75977 9.9707-4.19922L9.9707-6.31836L12.0996-6.31836C12.5391-6.31836 12.8418-6.61133 12.8418-7.04102C12.8418-7.48047 12.5391-7.7832 12.0996-7.7832L9.9707-7.7832L9.9707-9.89258C9.9707-10.3418 9.67773-10.6445 9.22852-10.6445C8.79883-10.6445 8.50586-10.3418 8.50586-9.89258L8.50586-7.7832L6.39648-7.7832C5.94727-7.7832 5.64453-7.48047 5.64453-7.04102C5.64453-6.61133 5.94727-6.31836 6.39648-6.31836Z"/>
  </g>
  <g id="" transform="matrix(1 0 0 1 281.506 1933)">
   <path d="M11.709 2.91016C17.1582 2.91016 21.6699-1.61133 21.6699-7.05078C21.6699-12.5 17.1484-17.0117 11.6992-17.0117C6.25977-17.0117 1.74805-12.5 1.74805-7.05078C1.74805-1.61133 6.26953 2.91016 11.709 2.91016ZM11.709 1.25C7.09961 1.25 3.41797-2.44141 3.41797-7.05078C3.41797-11.6602 7.08984-15.3516 11.6992-15.3516C16.3086-15.3516 20-11.6602 20.0098-7.05078C20.0195-2.44141 16.3184 1.25 11.709 1.25ZM7.98828-6.23047L10.8789-6.23047L10.8789-3.32031C10.8789-2.83203 11.2109-2.5 11.6895-2.5C12.1777-2.5 12.5195-2.83203 12.5195-3.32031L12.5195-6.23047L15.4297-6.23047C15.918-6.23047 16.25-6.5625 16.25-7.04102C16.25-7.5293 15.918-7.87109 15.4297-7.87109L12.5195-7.87109L12.5195-10.7617C12.5195-11.2695 12.1777-11.6016 11.6895-11.6016C11.2109-11.6016 10.8789-11.2598 10.8789-10.7617L10.8789-7.87109L7.98828-7.87109C7.48047-7.87109 7.14844-7.5293 7.14844-7.04102C7.14844-6.5625 7.49023-6.23047 7.98828-6.23047Z"/>
  </g>
  <g id="" transform="matrix(1 0 0 1 304.924 1933)">
   <path d="M14.9707 5.66406C21.9336 5.66406 27.6953-0.0976562 27.6953-7.05078C27.6953-14.0137 21.9238-19.7754 14.9609-19.7754C8.00781-19.7754 2.25586-14.0137 2.25586-7.05078C2.25586-0.0976562 8.01758 5.66406 14.9707 5.66406ZM14.9707 3.84766C8.93555 3.84766 4.08203-1.01562 4.08203-7.05078C4.08203-13.0957 8.92578-17.9492 14.9609-17.9492C21.0059-17.9492 25.8594-13.0957 25.8691-7.05078C25.8789-1.01562 21.0156 3.84766 14.9707 3.84766ZM10.0586-6.14258L14.0625-6.14258L14.0625-2.12891C14.0625-1.5918 14.4336-1.2207 14.9512-1.2207C15.4883-1.2207 15.8594-1.5918 15.8594-2.12891L15.8594-6.14258L19.8828-6.14258C20.4102-6.14258 20.791-6.51367 20.791-7.03125C20.791-7.56836 20.4199-7.94922 19.8828-7.94922L15.8594-7.94922L15.8594-11.9531C15.8594-12.5098 15.4883-12.8809 14.9512-12.8809C14.4336-12.8809 14.0625-12.5 14.0625-11.9531L14.0625-7.94922L10.0586-7.94922C9.50195-7.94922 9.13086-7.56836 9.13086-7.03125C9.13086-6.51367 9.51172-6.14258 10.0586-6.14258Z"/>
  </g>
  <text style="stroke:none;fill:black;font-family:-apple-system,&quot;SF Pro Display&quot;,&quot;SF Pro Text&quot;,Helvetica,sans-serif;font-weight:bold;" transform="matrix(1 0 0 1 263 1953)">Design Variations</text>
  <text style="stroke:none;fill:black;font-family:-apple-system,&quot;SF Pro Display&quot;,&quot;SF Pro Text&quot;,Helvetica,sans-serif;" transform="matrix(1 0 0 1 263 1971)">Symbols are supported in up to nine weights and three scales.</text>
  <text style="stroke:none;fill:black;font-family:-apple-system,&quot;SF Pro Display&quot;,&quot;SF Pro Text&quot;,Helvetica,sans-serif;" transform="matrix(1 0 0 1 263 1989)">For optimal layout with text and other symbols, vertically align</text>
  <text style="stroke:none;fill:black;font-family:-apple-system,&quot;SF Pro Display&quot;,&quot;SF Pro Text&quot;,Helvetica,sans-serif;" transform="matrix(1 0 0 1 263 2007)">symbols with the adjacent text.</text>
  <line id="" style="fill:none;stroke:#00AEEF;stroke-width:0.5;opacity:1.0;" x1="776" x2="776" y1="1919" y2="1933"/>
  <g id="" transform="matrix(1 0 0 1 776 1933)">
   <path d="M3.31055 0.126953C3.82812 0.126953 4.08203-0.0683594 4.26758-0.605469L5.52734-4.0625L11.2891-4.0625L12.5488-0.605469C12.7344-0.0683594 12.9883 0.126953 13.4961 0.126953C14.0137 0.126953 14.3457-0.185547 14.3457-0.673828C14.3457-0.839844 14.3164-0.986328 14.2383-1.20117L9.6582-13.3887C9.43359-13.9941 9.0332-14.2871 8.4082-14.2871C7.80273-14.2871 7.39258-13.9941 7.17773-13.3984L2.59766-1.19141C2.51953-0.976562 2.49023-0.830078 2.49023-0.664062C2.49023-0.175781 2.80273 0.126953 3.31055 0.126953ZM6.00586-5.53711L8.37891-12.1094L8.42773-12.1094L10.8008-5.53711Z"/>
  </g>
  <line id="" style="fill:none;stroke:#00AEEF;stroke-width:0.5;opacity:1.0;" x1="792.836" x2="792.836" y1="1919" y2="1933"/>
  <text style="stroke:none;fill:black;font-family:-apple-system,&quot;SF Pro Display&quot;,&quot;SF Pro Text&quot;,Helvetica,sans-serif;font-weight:bold;" transform="matrix(1 0 0 1 776 1953)">Margins</text>
  <text style="stroke:none;fill:black;font-family:-apple-system,&quot;SF Pro Display&quot;,&quot;SF Pro Text&quot;,Helvetica,sans-serif;" transform="matrix(1 0 0 1 776 1971)">Leading and trailing margins on the left and right side of each symbol</text>
  <text style="stroke:none;fill:black;font-family:-apple-system,&quot;SF Pro Display&quot;,&quot;SF Pro Text&quot;,Helvetica,sans-serif;" transform="matrix(1 0 0 1 776 1989)">can be adjusted by modifying the x-location of the margin guidelines.</text>
  <text style="stroke:none;fill:black;font-family:-apple-system,&quot;SF Pro Display&quot;,&quot;SF Pro Text&quot;,Helvetica,sans-serif;" transform="matrix(1 0 0 1 776 2007)">Modifications are automatically applied proportionally to all</text>
  <text style="stroke:none;fill:black;font-family:-apple-system,&quot;SF Pro Display&quot;,&quot;SF Pro Text&quot;,Helvetica,sans-serif;" transform="matrix(1 0 0 1 776 2025)">scales and weights.</text>
  <g id="" transform="matrix(1 0 0 1 1289 1933)">
   <path d="M2.8418 1.86523L4.54102 3.57422C5.40039 4.44336 6.38672 4.38477 7.31445 3.35938L17.4902-7.85156C17.7539-7.76367 18.0273-7.7832 18.3398-7.8418L19.4043-8.03711L20.0684-7.36328L20.0293-6.80664C19.9902-6.30859 20.1172-5.92773 20.6055-5.44922L21.3672-4.70703C21.8457-4.22852 22.4609-4.19922 22.9297-4.66797L25.8398-7.58789C26.3086-8.05664 26.2891-8.65234 25.8105-9.13086L25.0391-9.89258C24.5605-10.3711 24.1895-10.5273 23.7109-10.4883L23.1348-10.4395L22.4902-11.0742L22.7344-12.1973C22.8613-12.7637 22.7051-13.2031 22.1191-13.7891L19.9219-15.9766C16.582-19.2969 12.1484-19.2188 9.25781-16.3281C8.83789-15.918 8.80859-15.3418 9.04297-14.9512C9.27734-14.5898 9.73633-14.3555 10.3809-14.5215C11.8457-14.8633 13.3691-14.9219 14.7949-13.9844L14.209-12.5293C14.0137-12.0508 13.9844-11.6504 14.1113-11.2891L3.04688-0.898438C2.06055 0.0195312 1.98242 0.996094 2.8418 1.86523ZM10.752-15.957C13.1836-17.7344 16.4746-17.4316 18.7012-15.2051L21.1328-12.793C21.3672-12.5586 21.4062-12.373 21.3379-12.0312L21.0156-10.5469L22.5195-9.0625L23.5059-9.12109C23.7598-9.13086 23.8379-9.11133 24.0332-8.91602L24.6094-8.33984L22.168-5.89844L21.5918-6.47461C21.3965-6.66992 21.3672-6.74805 21.377-7.01172L21.4453-7.98828L19.9512-9.47266L18.4277-9.21875C18.1055-9.15039 17.959-9.17969 17.7148-9.41406L15.7129-11.416C15.459-11.6504 15.4297-11.8164 15.5859-12.1875L16.4648-14.2773C14.9023-15.7324 12.8711-16.3574 10.8398-15.7617C10.6836-15.7227 10.625-15.8496 10.752-15.957ZM5.27344 2.30469L4.10156 1.14258C3.63281 0.683594 3.74023 0.341797 4.14062-0.0195312L14.9512-10.1953L16.416-8.71094L6.42578 2.27539C6.07422 2.67578 5.74219 2.77344 5.27344 2.30469Z"/>
  </g>
  <text style="stroke:none;fill:black;font-family:-apple-system,&quot;SF Pro Display&quot;,&quot;SF Pro Text&quot;,Helvetica,sans-serif;font-weight:bold;" transform="matrix(1 0 0 1 1289 1953)">Exporting</text>
  <text style="stroke:none;fill:black;font-family:-apple-system,&quot;SF Pro Display&quot;,&quot;SF Pro Text&quot;,Helvetica,sans-serif;" transform="matrix(1 0 0 1 1289 1971)">Symbols should be outlined when exporting to ensure the</text>
  <text style="stroke:none;fill:black;font-family:-apple-system,&quot;SF Pro Display&quot;,&quot;SF Pro Text&quot;,Helvetica,sans-serif;" transform="matrix(1 0 0 1 1289 1989)">design is preserved when submitting to Xcode.</text>
  <text id="template-version" style="stroke:none;fill:black;font-family:-apple-system,&quot;SF Pro Display&quot;,&quot;SF Pro Text&quot;,Helvetica,sans-serif;text-anchor:end;" transform="matrix(1 0 0 1 3036 1933)">Template v.2.0</text>
  <text style="stroke:none;fill:black;font-family:-apple-system,&quot;SF Pro Display&quot;,&quot;SF Pro Text&quot;,Helvetica,sans-serif;text-anchor:end;" transform="matrix(1 0 0 1 3036 1951)">Requires Xcode 12 or greater</text>
  <text style="stroke:none;fill:black;font-family:-apple-system,&quot;SF Pro Display&quot;,&quot;SF Pro Text&quot;,Helvetica,sans-serif;text-anchor:end;" transform="matrix(1 0 0 1 3036 1969)">Generated from arrow.uturn.backward</text>
  <text style="stroke:none;fill:black;font-family:-apple-system,&quot;SF Pro Display&quot;,&quot;SF Pro Text&quot;,Helvetica,sans-serif;text-anchor:end;" transform="matrix(1 0 0 1 3036 1987)">Typeset at 100 points</text>
  <text style="stroke:none;fill:black;font-family:-apple-system,&quot;SF Pro Display&quot;,&quot;SF Pro Text&quot;,Helvetica,sans-serif;" transform="matrix(1 0 0 1 263 726)">Small</text>
  <text style="stroke:none;fill:black;font-family:-apple-system,&quot;SF Pro Display&quot;,&quot;SF Pro Text&quot;,Helvetica,sans-serif;" transform="matrix(1 0 0 1 263 1156)">Medium</text>
  <text style="stroke:none;fill:black;font-family:-apple-system,&quot;SF Pro Display&quot;,&quot;SF Pro Text&quot;,Helvetica,sans-serif;" transform="matrix(1 0 0 1 263 1586)">Large</text>
 </g>
 <g id="Guides">
  <g id="H-reference" style="fill:#27AAE1;stroke:none;" transform="matrix(1 0 0 1 339 696)">
   <path d="M0.976562 0L3.66211 0L12.9883-24.4629L45.752-24.4629L55.127 0L57.7637 0L30.6152-70.459L28.125-70.459ZM29.3457-67.1387L29.4434-67.1387L44.873-26.709L13.8672-26.709Z"/>
  </g>
  <line id="Baseline-S" style="fill:none;stroke:#27AAE1;opacity:1;stroke-width:0.5;" x1="263" x2="3036" y1="696" y2="696"/>
  <line id="Capline-S" style="fill:none;stroke:#27AAE1;opacity:1;stroke-width:0.5;" x1="263" x2="3036" y1="625.541" y2="625.541"/>
  <g id="H-reference" style="fill:#27AAE1;stroke:none;" transform="matrix(1 0 0 1 339 1126)">
   <path d="M0.976562 0L3.66211 0L12.9883-24.4629L45.752-24.4629L55.127 0L57.7637 0L30.6152-70.459L28.125-70.459ZM29.3457-67.1387L29.4434-67.1387L44.873-26.709L13.8672-26.709Z"/>
  </g>
  <line id="Baseline-M" style="fill:none;stroke:#27AAE1;opacity:1;stroke-width:0.5;" x1="263" x2="3036" y1="1126" y2="1126"/>
  <line id="Capline-M" style="fill:none;stroke:#27AAE1;opacity:1;stroke-width:0.5;" x1="263" x2="3036" y1="1055.54" y2="1055.54"/>
  <g id="H-reference" style="fill:#27AAE1;stroke:none;" transform="matrix(1 0 0 1 339 1556)">
   <path d="M0.976562 0L3.66211 0L12.9883-24.4629L45.752-24.4629L55.127 0L57.7637 0L30.6152-70.459L28.125-70.459ZM29.3457-67.1387L29.4434-67.1387L44.873-26.709L13.8672-26.709Z"/>
  </g>
  <line id="Baseline-L" style="fill:none;stroke:#27AAE1;opacity:1;stroke-width:0.5;" x1="263" x2="3036" y1="1556" y2="1556"/>
  <line id="Capline-L" style="fill:none;stroke:#27AAE1;opacity:1;stroke-width:0.5;" x1="263" x2="3036" y1="1485.54" y2="1485.54"/>
  <line id="left-margin" style="fill:none;stroke:#00AEEF;stroke-width:0.5;opacity:1.0;" x1="1391.25" x2="1391.25" y1="1030.79" y2="1150.12"/>
  <line id="right-margin" style="fill:none;stroke:#00AEEF;stroke-width:0.5;opacity:1.0;" x1="1508.44" x2="1508.44" y1="1030.79" y2="1150.12"/>
 </g>
 <g id="Symbols">
  <g id="Black-L" transform="matrix(1 0 0 1 2854.25 1556)">
   <path d="M142.236-13.916C142.236-42.1387 123.242-61.6699 94.7266-61.6699L64.7949-61.6699L51.0254-61.0352L58.8867-67.2852L68.1641-76.2695C70.2637-78.3691 71.875-80.8594 71.875-84.4238C71.875-90.5762 67.4316-95.2637 60.8398-95.2637C57.9102-95.2637 54.9805-93.9941 52.6855-91.6992L19.3848-58.6426C17.334-56.5918 16.0645-53.3203 16.0645-50.2441C16.0645-47.168 17.334-43.8965 19.3848-41.8457L52.6855-8.83789C54.9805-6.5918 57.9102-5.32227 60.8398-5.32227C67.4316-5.32227 71.875-9.96094 71.875-16.1133C71.875-19.6777 70.2637-22.168 68.1641-24.2676L58.8867-33.2031L51.0254-39.4531L64.7949-38.8184L93.2617-38.8184C109.521-38.8184 119.971-28.5156 119.971-14.1113C119.971 0.292969 109.521 10.3516 93.2617 10.3516L78.5156 10.3516C71.9727 10.3516 66.9434 15.4785 66.9434 21.7773C66.9434 28.125 71.9727 33.2031 78.5156 33.2031L95.0684 33.2031C123.389 33.2031 142.236 14.9414 142.236-13.916Z"/>
  </g>
  <g id="Heavy-L" transform="matrix(1 0 0 1 2558.47 1556)">
   <path d="M140.381-13.1348C140.381-40.2832 122.119-58.9844 93.8477-58.9844L60.1074-58.9844L46.0449-58.3496L55.0781-65.7227L66.6504-77.0508C68.5059-78.8086 69.8242-81.0059 69.8242-84.0332C69.8242-89.4043 66.0156-93.4082 60.3027-93.4082C57.7637-93.4082 55.1758-92.334 53.2227-90.332L18.9453-56.3965C17.1387-54.5898 16.0645-51.8066 16.0645-49.1211C16.0645-46.4844 17.1387-43.6523 18.9453-41.8945L53.2227-7.95898C55.1758-6.00586 57.7637-4.88281 60.3027-4.88281C66.0156-4.88281 69.8242-8.93555 69.8242-14.2578C69.8242-17.334 68.5059-19.4824 66.6504-21.2891L55.0781-32.5684L46.0449-39.9414L60.1074-39.2578L92.9199-39.2578C110.4-39.2578 121.143-28.5645 121.143-13.4277C121.143 1.66016 110.4 12.4023 92.9199 12.4023L77.832 12.4023C72.1191 12.4023 67.8223 16.7969 67.8223 22.2168C67.8223 27.6855 72.1191 32.0801 77.832 32.0801L94.3359 32.0801C122.314 32.0801 140.381 14.4043 140.381-13.1348Z"/>
  </g>
  <g id="Bold-L" transform="matrix(1 0 0 1 2262.78 1556)">
   <path d="M138.33-12.3047C138.33-38.1836 120.85-55.957 92.9199-55.957L54.834-55.957L40.5273-55.3711L50.7812-63.916L65.0391-77.8809C66.5039-79.3457 67.5293-81.1523 67.5293-83.5938C67.5293-88.0371 64.4043-91.3574 59.668-91.3574C57.6172-91.3574 55.4688-90.4297 53.8574-88.8672L18.5059-53.8574C16.9434-52.3438 16.0645-50.0977 16.0645-47.9004C16.0645-45.7031 16.9434-43.457 18.5059-41.8945L53.8574-6.93359C55.4688-5.37109 57.6172-4.44336 59.668-4.44336C64.4043-4.44336 67.5293-7.76367 67.5293-12.207C67.5293-14.6484 66.5039-16.4551 65.0391-17.9199L50.7812-31.8359L40.5273-40.4297L54.834-39.7949L92.5293-39.7949C111.328-39.7949 122.461-28.6133 122.461-12.6953C122.461 3.27148 111.328 14.6484 92.5293 14.6484L77.0508 14.6484C72.2656 14.6484 68.8477 18.2617 68.8477 22.7051C68.8477 27.1973 72.3145 30.8105 77.0508 30.8105L93.457 30.8105C121.094 30.8105 138.33 13.8184 138.33-12.3047Z"/>
  </g>
  <g id="Semibold-L" transform="matrix(1 0 0 1 1966.75 1556)">
   <path d="M136.963-11.7676C136.963-36.7676 120.02-53.9062 92.2363-53.9062L51.2207-53.9062L36.7676-53.2715L47.8027-62.6953L63.8672-78.4668C65.1367-79.7363 65.9668-81.25 65.9668-83.3008C65.9668-87.1094 63.2812-89.9414 59.2285-89.9414C57.5195-89.9414 55.6152-89.1602 54.2969-87.793L18.1641-52.0996C16.7969-50.7812 16.0645-48.9258 16.0645-47.0215C16.0645-45.166 16.7969-43.2617 18.1641-41.9434L54.2969-6.25C55.6152-4.93164 57.5195-4.15039 59.2285-4.15039C63.2812-4.15039 65.9668-6.93359 65.9668-10.791C65.9668-12.8418 65.1367-14.3555 63.8672-15.5762L47.8027-31.3477L36.7676-40.7715L51.2207-40.1855L92.2852-40.1855C112.012-40.1855 123.389-28.6621 123.389-12.1582C123.389 4.3457 112.012 16.1621 92.2852 16.1621L76.4648 16.1621C72.4121 16.1621 69.5312 19.2383 69.5312 23.0469C69.5312 26.8555 72.4121 29.9316 76.5137 29.9316L92.9199 29.9316C120.264 29.9316 136.963 13.4277 136.963-11.7676Z"/>
  </g>
  <g id="Medium-L" transform="matrix(1 0 0 1 1670.58 1556)">
   <path d="M135.889-11.3281C135.889-35.6445 119.336-52.3438 91.748-52.3438L48.4375-52.3438L33.9355-51.7578L45.5566-61.7676L63.0371-78.9062C64.1113-79.9805 64.7461-81.2988 64.7461-83.1055C64.7461-86.4258 62.4023-88.8672 58.8867-88.8672C57.4219-88.8672 55.7617-88.1836 54.5898-87.0117L17.9688-50.7812C16.6992-49.6094 16.0645-47.998 16.0645-46.3867C16.0645-44.7266 16.6992-43.1641 17.9688-41.9434L54.5898-5.76172C55.7617-4.58984 57.4219-3.90625 58.8867-3.90625C62.4023-3.90625 64.7461-6.34766 64.7461-9.66797C64.7461-11.4746 64.1113-12.793 63.0371-13.8672L45.5566-30.957L33.9355-41.0156L48.4375-40.4297L92.0898-40.4297C112.5-40.4297 124.072-28.6621 124.072-11.7676C124.072 5.17578 112.5 17.3828 92.0898 17.3828L76.0742 17.3828C72.5098 17.3828 70.0195 20.0195 70.0195 23.291C70.0195 26.6113 72.5098 29.248 76.0742 29.248L92.4316 29.248C119.629 29.248 135.889 13.1348 135.889-11.3281Z"/>
  </g>
  <g id="Regular-L" transform="matrix(1 0 0 1 1374.58 1556)">
   <path d="M134.473-10.7422C134.473-34.2285 118.506-50.293 91.1133-50.293L44.873-50.293L30.3223-49.707L42.627-60.5957L61.9141-79.4922C62.7441-80.3223 63.1836-81.3965 63.1836-82.8125C63.1836-85.498 61.3281-87.5 58.4961-87.5C57.3242-87.5 55.957-86.9141 55.0293-85.9863L17.627-49.0723C16.5527-48.0469 16.0645-46.875 16.0645-45.5566C16.0645-44.1895 16.5527-43.0176 17.627-41.9922L55.0293-5.07812C55.957-4.15039 57.3242-3.56445 58.4961-3.56445C61.3281-3.56445 63.1836-5.56641 63.1836-8.30078C63.1836-9.66797 62.7441-10.7422 61.9141-11.5723L42.627-30.4688L30.3223-41.3574L44.873-40.7715L91.7969-40.7715C113.135-40.7715 125-28.7109 125-11.2305C125 6.25 113.135 18.8965 91.7969 18.8965L75.5371 18.8965C72.6074 18.8965 70.7031 21.0449 70.7031 23.6328C70.7031 26.2695 72.6562 28.3691 75.5859 28.3691L91.8945 28.3691C118.848 28.3691 134.473 12.7441 134.473-10.7422Z"/>
  </g>
  <g id="Light-L" transform="matrix(1 0 0 1 1078.3 1556)">
   <path d="M133.594-11.377C133.594-33.9844 117.969-49.3164 92.4805-49.3164L40.8691-49.3164L26.709-48.877L39.502-60.6445L60.3027-81.2012C60.8887-81.7871 61.2305-82.666 61.2305-83.6914C61.2305-85.6934 59.8145-87.207 57.666-87.207C56.7871-87.207 55.8105-86.8164 55.127-86.084L17.2363-48.3887C16.4551-47.6562 16.0645-46.7773 16.0645-45.752C16.0645-44.7266 16.4551-43.8477 17.2363-43.1152L55.127-5.41992C55.8105-4.73633 56.7871-4.29688 57.666-4.29688C59.8145-4.29688 61.2305-5.81055 61.2305-7.8125C61.2305-8.83789 60.8887-9.7168 60.3027-10.3027L39.502-30.9082L26.709-42.627L40.8691-42.2363L92.8711-42.2363C113.965-42.2363 126.514-29.834 126.514-11.6699C126.514 6.44531 113.965 19.1895 92.8711 19.1895L74.1699 19.1895C72.0215 19.1895 70.6055 20.8008 70.6055 22.7539C70.6055 24.707 72.0703 26.2695 74.2188 26.2695L92.9688 26.2695C118.213 26.2695 133.594 11.2305 133.594-11.377Z"/>
  </g>
  <g id="Thin-L" transform="matrix(1 0 0 1 782.179 1556)">
   <path d="M132.422-12.207C132.422-33.6426 117.334-47.998 94.2871-47.998L35.6445-47.998L22.1191-47.8027L35.3516-60.6934L58.1543-83.3984C58.4473-83.7402 58.6426-84.2773 58.6426-84.9121C58.6426-85.9375 57.8613-86.8164 56.6406-86.8164C56.0547-86.8164 55.6152-86.6211 55.2246-86.2305L16.6992-47.5098C16.2598-47.0703 16.0645-46.6309 16.0645-46.0449C16.0645-45.459 16.2598-45.0195 16.6992-44.6289L55.2246-5.85938C55.6152-5.46875 56.0547-5.27344 56.6406-5.27344C57.8613-5.27344 58.6426-6.15234 58.6426-7.22656C58.6426-7.8125 58.4473-8.34961 58.1543-8.69141L35.3516-31.4453L22.1191-44.3359L35.6445-44.0918L94.2871-44.0918C115.039-44.0918 128.516-31.3477 128.516-12.2559C128.516 6.78711 115.039 19.6289 94.2871 19.6289L72.3633 19.6289C71.1914 19.6289 70.459 20.459 70.459 21.582C70.459 22.7051 71.2891 23.5352 72.4121 23.5352L94.4336 23.5352C117.383 23.5352 132.422 9.22852 132.422-12.207Z"/>
  </g>
  <g id="Ultralight-L" transform="matrix(1 0 0 1 485.761 1556)">
   <path d="M131.836-12.6465C131.836-33.4961 116.992-47.3145 95.2637-47.3145L32.959-47.3145L19.7754-47.2656L33.2031-60.6934L57.0312-84.5703C57.1777-84.7168 57.3242-85.1562 57.3242-85.498C57.3242-86.084 56.8359-86.6699 56.1035-86.6699C55.7129-86.6699 55.5176-86.5234 55.2734-86.2793L16.4062-47.0215C16.1621-46.7773 16.0645-46.582 16.0645-46.1914C16.0645-45.8008 16.1621-45.6055 16.4062-45.3613L55.2734-6.10352C55.5176-5.85938 55.7129-5.76172 56.1035-5.76172C56.8359-5.76172 57.3242-6.29883 57.3242-6.88477C57.3242-7.27539 57.1777-7.66602 57.0312-7.86133L33.2031-31.6895L19.7754-45.166L32.959-45.0684L94.9707-45.0684C115.576-45.0684 129.541-32.0801 129.541-12.5977C129.541 6.93359 115.576 19.8242 94.9707 19.8242L71.4355 19.8242C70.8008 19.8242 70.4102 20.3125 70.4102 20.9961C70.4102 21.6309 70.8984 22.1191 71.5332 22.1191L95.166 22.1191C116.943 22.1191 131.836 8.25195 131.836-12.6465Z"/>
  </g>
  <g id="Black-M" transform="matrix(1 0 0 1 2871.07 1126)">
   <path d="M112.207-20.0195C112.207-43.0176 96.7773-58.8379 75.293-58.8379L54.4434-58.8379L44.1895-58.3496L49.1211-62.2559L53.9062-66.8945C55.8594-68.7988 57.4219-71.0938 57.4219-74.3652C57.4219-79.834 53.418-84.082 47.5098-84.082C44.7754-84.082 42.1875-82.9102 40.1367-80.8594L15.332-56.0547C13.5742-54.2969 12.4512-51.2695 12.4512-48.4863C12.4512-45.7031 13.5742-42.6758 15.332-40.918L40.1367-16.1621C42.1875-14.1113 44.7754-12.9395 47.5098-12.9395C53.418-12.9395 57.4219-17.1875 57.4219-22.6562C57.4219-25.9766 55.8594-28.2227 53.9062-30.127L49.1211-34.7168L44.1895-38.623L54.4434-38.1348L73.291-38.1348C84.1797-38.1348 92.1387-30.5664 92.1387-20.0195C92.1387-9.47266 84.1797-2.44141 73.291-2.44141L61.084-2.44141C55.2246-2.44141 50.6348 2.14844 50.6348 7.91016C50.6348 13.623 55.2246 18.2617 61.084 18.2617L75.293 18.2617C96.7285 18.2617 112.207 3.56445 112.207-20.0195Z"/>
  </g>
  <g id="Heavy-M" transform="matrix(1 0 0 1 2575.24 1126)">
   <path d="M110.449-19.043C110.449-41.0156 95.6543-56.1523 74.0234-56.1523L50.3418-56.1523L39.7461-55.6641L45.752-60.498L52.7344-67.2852C54.3945-68.9453 55.6641-70.8984 55.6641-73.6816C55.6641-78.4668 52.2461-82.1289 47.1191-82.1289C44.7754-82.1289 42.4805-81.1523 40.7227-79.3457L14.9902-53.7598C13.4277-52.1973 12.4512-49.6094 12.4512-47.2168C12.4512-44.8242 13.4277-42.2363 14.9902-40.6738L40.7227-15.0879C42.4805-13.3301 44.7754-12.3535 47.1191-12.3535C52.2461-12.3535 55.6641-15.9668 55.6641-20.752C55.6641-23.584 54.3945-25.5371 52.7344-27.1484L45.752-33.9355L39.7461-38.7695L50.3418-38.2812L72.6562-38.2812C84.9121-38.2812 93.0664-30.3223 93.0664-19.1895C93.0664-8.00781 84.9121-0.341797 72.6562-0.341797L60.6445-0.341797C55.5664-0.341797 51.6113 3.66211 51.6113 8.59375C51.6113 13.5742 55.5664 17.5293 60.6445 17.5293L74.1699 17.5293C95.752 17.5293 110.449 3.36914 110.449-19.043Z"/>
  </g>
  <g id="Bold-M" transform="matrix(1 0 0 1 2279.53 1126)">
   <path d="M108.447-17.9688C108.447-38.7695 94.4336-53.125 72.5586-53.125L45.752-53.125L34.8145-52.6367L41.9922-58.5449L51.416-67.7734C52.7832-69.0918 53.7598-70.7031 53.7598-72.9492C53.7598-76.9531 50.8789-79.9805 46.6309-79.9805C44.7754-79.9805 42.8223-79.1504 41.3574-77.6855L14.5996-51.2207C13.2324-49.8535 12.4512-47.7539 12.4512-45.8008C12.4512-43.7988 13.2324-41.6992 14.5996-40.3809L41.3574-13.916C42.8223-12.4512 44.7754-11.6211 46.6309-11.6211C50.8789-11.6211 53.7598-14.6484 53.7598-18.6523C53.7598-20.8984 52.7832-22.5098 51.416-23.877L41.9922-33.0078L34.8145-38.916L45.752-38.4277L71.9238-38.4277C85.6934-38.4277 94.0918-30.0781 94.0918-18.2129C94.0918-6.34766 85.6934 2.05078 71.9238 2.05078L60.2051 2.05078C55.9082 2.05078 52.7344 5.32227 52.7344 9.42383C52.7344 13.4766 55.957 16.748 60.2051 16.748L72.9492 16.748C94.5801 16.748 108.447 3.17383 108.447-17.9688Z"/>
  </g>
  <g id="Semibold-M" transform="matrix(1 0 0 1 1983.48 1126)">
   <path d="M107.129-17.2363C107.129-37.2559 93.6035-51.0742 71.5332-51.0742L42.5781-51.0742L31.3965-50.5859L39.4043-57.2266L50.4883-68.0664C51.6602-69.1895 52.4414-70.5566 52.4414-72.4609C52.4414-75.9277 50-78.4668 46.3379-78.4668C44.7266-78.4668 43.0664-77.7832 41.7969-76.5625L14.3555-49.4141C13.1348-48.2422 12.4512-46.4844 12.4512-44.8242C12.4512-43.1152 13.1348-41.3574 14.3555-40.1855L41.7969-13.0859C43.0664-11.8652 44.7266-11.1328 46.3379-11.1328C50-11.1328 52.4414-13.7207 52.4414-17.1875C52.4414-19.0918 51.6602-20.459 50.4883-21.582L39.4043-32.4219L31.3965-39.0625L42.5781-38.5254L71.4355-38.5254C86.2305-38.5254 94.7754-29.8828 94.7754-17.5293C94.7754-5.22461 86.2305 3.66211 71.4355 3.66211L59.8633 3.66211C56.2012 3.66211 53.5156 6.49414 53.5156 9.96094C53.5156 13.3789 56.2012 16.2109 59.8633 16.2109L72.0703 16.2109C93.7988 16.2109 107.129 3.02734 107.129-17.2363Z"/>
  </g>
  <g id="Medium-M" transform="matrix(1 0 0 1 1687.3 1126)">
   <path d="M106.055-16.6504C106.055-36.084 92.9688-49.5117 70.8008-49.5117L40.1367-49.5117L28.8574-48.9746L37.4023-56.2012L49.8047-68.3105C50.7812-69.2383 51.416-70.459 51.416-72.0703C51.416-75.1465 49.2676-77.3438 46.0938-77.3438C44.7266-77.3438 43.2129-76.709 42.1387-75.6836L14.1602-48.0957C13.0371-47.0215 12.4512-45.5566 12.4512-44.043C12.4512-42.5781 13.0371-41.1133 14.1602-40.0391L42.1387-12.4512C43.2129-11.4258 44.7266-10.791 46.0938-10.791C49.2676-10.791 51.416-12.9883 51.416-16.0645C51.416-17.6758 50.7812-18.8477 49.8047-19.8242L37.4023-31.9336L28.8574-39.1113L40.1367-38.623L71.0449-38.623C86.6699-38.623 95.3125-29.7363 95.3125-17.041C95.3125-4.3457 86.6699 4.93164 71.0449 4.93164L59.6191 4.93164C56.3965 4.93164 54.1016 7.37305 54.1016 10.3516C54.1016 13.3301 56.3965 15.7715 59.668 15.7715L71.4355 15.7715C93.2129 15.7715 106.055 2.92969 106.055-16.6504Z"/>
  </g>
  <g id="Regular-M" transform="matrix(1 0 0 1 1391.25 1126)">
   <path d="M104.736-15.918C104.736-34.5703 92.0898-47.4609 69.8242-47.4609L37.0117-47.4609L25.5859-46.9238L34.8145-54.834L48.9258-68.6035C49.6582-69.3848 50.0977-70.3125 50.0977-71.582C50.0977-74.1211 48.3887-75.8789 45.752-75.8789C44.7266-75.8789 43.457-75.3418 42.627-74.5117L13.916-46.3379C12.9395-45.4102 12.4512-44.2871 12.4512-43.0664C12.4512-41.8945 12.9395-40.7715 13.916-39.8438L42.627-11.6699C43.457-10.791 44.7266-10.3027 45.752-10.3027C48.3887-10.3027 50.0977-12.0605 50.0977-14.5996C50.0977-15.8691 49.6582-16.7969 48.9258-17.5781L34.8145-31.2988L25.5859-39.209L37.0117-38.7207L70.5566-38.7207C87.207-38.7207 95.9961-29.541 95.9961-16.4062C95.9961-3.22266 87.207 6.54297 70.5566 6.54297L59.3262 6.54297C56.6406 6.54297 54.8828 8.49609 54.8828 10.8887C54.8828 13.2812 56.6406 15.2344 59.3262 15.2344L70.6055 15.2344C92.4316 15.2344 104.736 2.7832 104.736-15.918Z"/>
  </g>
  <g id="Light-M" transform="matrix(1 0 0 1 1094.93 1126)">
   <path d="M103.955-16.4551C103.955-34.375 91.6504-46.582 71.0449-46.582L33.4473-46.582L22.3145-46.1914L32.0312-54.8828L47.4609-70.1172C47.998-70.6543 48.3398-71.4355 48.3398-72.3633C48.3398-74.2676 47.0215-75.6348 45.0684-75.6348C44.2383-75.6348 43.3105-75.2441 42.6758-74.6094L13.5254-45.752C12.793-45.0195 12.4512-44.1895 12.4512-43.3105C12.4512-42.3828 12.793-41.5527 13.5254-40.8203L42.6758-11.9629C43.3105-11.3281 44.2383-10.9375 45.0684-10.9375C47.0215-10.9375 48.3398-12.3047 48.3398-14.209C48.3398-15.1367 47.998-15.918 47.4609-16.4551L32.0312-31.6895L22.3145-40.3809L33.4473-39.9902L71.4844-39.9902C87.9395-39.9902 97.3633-30.5664 97.3633-16.7969C97.3633-3.02734 87.9395 6.83594 71.4844 6.83594L58.1055 6.83594C56.1035 6.83594 54.7852 8.30078 54.7852 10.1074C54.7852 11.9141 56.1035 13.3789 58.1055 13.3789L71.582 13.3789C91.8945 13.3789 103.955 1.46484 103.955-16.4551Z"/>
  </g>
  <g id="Thin-M" transform="matrix(1 0 0 1 798.756 1126)">
   <path d="M102.881-17.1875C102.881-34.082 91.0645-45.4102 72.7051-45.4102L28.7598-45.4102L18.1152-45.166L28.2715-54.9316L45.5078-72.0703C45.8496-72.4121 45.9961-72.9004 45.9961-73.4375C45.9961-74.4629 45.2637-75.293 44.1406-75.293C43.6035-75.293 43.1152-75.0977 42.7734-74.707L13.0371-44.9219C12.6465-44.5312 12.4512-44.0918 12.4512-43.5547C12.4512-43.0176 12.6465-42.5781 13.0371-42.1875L42.7734-12.4023C43.1152-12.0117 43.6035-11.8164 44.1406-11.8164C45.2637-11.8164 45.9961-12.5977 45.9961-13.623C45.9961-14.209 45.8496-14.6973 45.5078-14.9902L28.2715-32.1777L18.1152-41.8945L28.7598-41.6992L72.7539-41.6992C88.916-41.6992 99.1699-31.8848 99.1699-17.334C99.1699-2.73438 88.916 7.17773 72.7539 7.17773L56.4453 7.17773C55.3711 7.17773 54.6387 8.00781 54.6387 9.0332C54.6387 10.1074 55.4199 10.8887 56.543 10.8887L72.8516 10.8887C91.1621 10.8887 102.881-0.341797 102.881-17.1875Z"/>
  </g>
  <g id="Ultralight-M" transform="matrix(1 0 0 1 502.314 1126)">
   <path d="M102.344-17.5781C102.344-33.9355 90.7715-44.8242 73.5352-44.8242L26.3184-44.8242L16.0156-44.6777L26.3672-54.9805L44.5312-73.0957C44.7266-73.291 44.8242-73.6328 44.8242-74.0234C44.8242-74.6094 44.3359-75.1465 43.6523-75.1465C43.2617-75.1465 43.0664-75 42.8223-74.7559L12.793-44.5312C12.5488-44.2871 12.4512-44.043 12.4512-43.7012C12.4512-43.3105 12.5488-43.1152 12.793-42.8711L42.8223-12.5977C43.0664-12.3535 43.2617-12.2559 43.6523-12.2559C44.3359-12.2559 44.8242-12.793 44.8242-13.3789C44.8242-13.7207 44.7266-14.0625 44.5312-14.2578L26.3672-32.4219L16.0156-42.6758L26.3184-42.5781L73.3887-42.5781C89.4043-42.5781 100.098-32.5684 100.098-17.5781C100.098-2.58789 89.4043 7.37305 73.3887 7.37305L55.6152 7.37305C54.9805 7.37305 54.5898 7.86133 54.5898 8.49609C54.5898 9.17969 55.0293 9.61914 55.7129 9.61914L73.5352 9.61914C90.7715 9.61914 102.344-1.2207 102.344-17.5781Z"/>
  </g>
  <g id="Black-S" transform="matrix(1 0 0 1 2884.62 696)">
   <path d="M87.793-23.2422C87.793-41.1621 75.7324-53.5156 58.8867-53.5156L42.3828-53.5156L34.3262-53.125L38.2812-56.25L42.1875-60.0586C43.7012-61.5234 44.873-63.2812 44.873-65.8203C44.873-70.0684 41.7969-73.3398 37.207-73.3398C35.1074-73.3398 33.1055-72.4609 31.4941-70.8496L12.0117-51.3672C10.6445-50 9.76562-47.6562 9.76562-45.5078C9.76562-43.3594 10.6445-41.0156 12.0117-39.6484L31.4941-20.2148C33.1055-18.6035 35.1074-17.7246 37.207-17.7246C41.7969-17.7246 44.873-20.9961 44.873-25.2441C44.873-27.7832 43.7012-29.541 42.1875-31.0059L38.2812-34.7656L34.3262-37.8906L42.3828-37.5L57.373-37.5C66.0156-37.5 72.2656-31.543 72.2656-23.2422C72.2656-14.9414 66.0156-9.375 57.373-9.375L47.8516-9.375C43.3105-9.375 39.7461-5.81055 39.7461-1.36719C39.7461 3.07617 43.3105 6.64062 47.8516 6.64062L58.8867 6.64062C75.7324 6.64062 87.793-4.83398 87.793-23.2422Z"/>
  </g>
  <g id="Heavy-S" transform="matrix(1 0 0 1 2588.54 696)">
   <path d="M86.5234-22.4121C86.5234-39.6484 74.9512-51.5625 57.7637-51.5625L39.6484-51.5625L31.3477-51.1719L36.0352-54.9316L41.4551-60.2051C42.7734-61.4746 43.75-63.0371 43.75-65.2344C43.75-68.9941 41.0156-71.875 36.9629-71.875C35.1562-71.875 33.3496-71.0938 31.9336-69.6777L11.7676-49.707C10.5469-48.4375 9.76562-46.3867 9.76562-44.5312C9.76562-42.627 10.5469-40.5762 11.7676-39.3555L31.9336-19.3848C33.3496-17.9688 35.1562-17.1875 36.9629-17.1875C41.0156-17.1875 43.75-20.0684 43.75-23.8281C43.75-26.0254 42.7734-27.5879 41.4551-28.8574L36.0352-34.1309L31.3477-37.8418L39.6484-37.4512L56.7871-37.4512C66.5039-37.4512 72.8027-31.25 72.8027-22.5586C72.8027-13.8184 66.5039-7.76367 56.7871-7.76367L47.6562-7.76367C43.6035-7.76367 40.5273-4.63867 40.5273-0.732422C40.5273 3.17383 43.6035 6.29883 47.6562 6.29883L57.9102 6.29883C75 6.29883 86.5234-4.83398 86.5234-22.4121Z"/>
  </g>
  <g id="Bold-S" transform="matrix(1 0 0 1 2292.54 696)">
   <path d="M85.1074-21.5332C85.1074-37.9883 74.0723-49.3652 56.4941-49.3652L36.5723-49.3652L27.9785-48.9746L33.4961-53.418L40.625-60.3516C41.6992-61.4258 42.4805-62.7441 42.4805-64.5508C42.4805-67.8223 40.1855-70.2637 36.7188-70.2637C35.2051-70.2637 33.5938-69.5801 32.4219-68.4082L11.5234-47.8027C10.4004-46.6797 9.76562-45.0195 9.76562-43.4082C9.76562-41.7969 10.4004-40.0879 11.5234-39.0137L32.4219-18.4082C33.5938-17.2363 35.2051-16.5527 36.7188-16.5527C40.1855-16.5527 42.4805-18.9941 42.4805-22.2656C42.4805-24.0723 41.6992-25.3906 40.625-26.4648L33.4961-33.3984L27.9785-37.8418L36.5723-37.4512L56.1035-37.4512C66.9922-37.4512 73.4375-30.9082 73.4375-21.7773C73.4375-12.5977 66.9922-6.00586 56.1035-6.00586L47.4609-6.00586C43.9941-6.00586 41.4062-3.32031 41.4062-0.0488281C41.4062 3.27148 43.9941 5.95703 47.4609 5.95703L56.8848 5.95703C74.2188 5.95703 85.1074-4.83398 85.1074-21.5332Z"/>
  </g>
  <g id="Semibold-S" transform="matrix(1 0 0 1 1996.32 696)">
   <path d="M84.1309-20.8984C84.1309-36.8652 73.4375-47.8516 55.6152-47.8516L34.4238-47.8516L25.6836-47.4609L31.7383-52.3926L40.0391-60.4492C41.0156-61.377 41.6016-62.5488 41.6016-64.1113C41.6016-67.041 39.5996-69.1406 36.5234-69.1406C35.2051-69.1406 33.7891-68.5547 32.7637-67.5293L11.377-46.4844C10.3516-45.5078 9.76562-44.043 9.76562-42.627C9.76562-41.2109 10.3516-39.7461 11.377-38.7695L32.7637-17.7734C33.7891-16.748 35.2051-16.1133 36.5234-16.1133C39.5996-16.1133 41.6016-18.2617 41.6016-21.1914C41.6016-22.7539 41.0156-23.877 40.0391-24.8047L31.7383-32.8613L25.6836-37.8418L34.4238-37.4023L55.6641-37.4023C67.334-37.4023 73.8281-30.6641 73.8281-21.2402C73.8281-11.7676 67.334-4.78516 55.6641-4.78516L47.3145-4.78516C44.2383-4.78516 41.9922-2.44141 41.9922 0.439453C41.9922 3.32031 44.2383 5.66406 47.3145 5.66406L56.1035 5.66406C73.6816 5.66406 84.1309-4.78516 84.1309-20.8984Z"/>
  </g>
  <g id="Medium-S" transform="matrix(1 0 0 1 1699.97 696)">
   <path d="M83.3984-20.4102C83.3984-35.9863 72.998-46.7285 54.9805-46.7285L32.8613-46.7285L23.9258-46.2891L30.4199-51.6113L39.5996-60.5469C40.4297-61.377 40.9668-62.4023 40.9668-63.7695C40.9668-66.4062 39.1602-68.3105 36.377-68.3105C35.2539-68.3105 33.9355-67.7734 33.0078-66.8457L11.2305-45.5078C10.2539-44.5801 9.76562-43.3105 9.76562-42.041C9.76562-40.7715 10.2539-39.502 11.2305-38.5742L33.0078-17.2363C33.9355-16.3574 35.2539-15.8203 36.377-15.8203C39.1602-15.8203 40.9668-17.7246 40.9668-20.3613C40.9668-21.7285 40.4297-22.7539 39.5996-23.584L30.4199-32.4707L23.9258-37.793L32.8613-37.4023L55.2734-37.4023C67.627-37.4023 74.1699-30.5176 74.1699-20.8008C74.1699-11.1328 67.627-3.85742 55.2734-3.85742L47.2168-3.85742C44.3848-3.85742 42.4805-1.75781 42.4805 0.830078C42.4805 3.36914 44.3848 5.46875 47.2168 5.46875L55.5664 5.46875C73.2422 5.46875 83.3984-4.78516 83.3984-20.4102Z"/>
  </g>
  <g id="Regular-S" transform="matrix(1 0 0 1 1403.75 696)">
   <path d="M82.4219-19.8242C82.4219-34.8145 72.4121-45.2148 54.1016-45.2148L30.7617-45.2148L21.6797-44.7754L28.6621-50.5859L39.0137-60.6445C39.7461-61.3281 40.0879-62.207 40.0879-63.3301C40.0879-65.625 38.5742-67.1875 36.2305-67.1875C35.2539-67.1875 34.1309-66.748 33.3496-65.9668L11.084-44.2383C10.2051-43.4082 9.76562-42.3828 9.76562-41.3086C9.76562-40.2344 10.2051-39.1602 11.084-38.3301L33.3496-16.6016C34.1309-15.8691 35.2539-15.3809 36.2305-15.3809C38.5742-15.3809 40.0879-16.9922 40.0879-19.2871C40.0879-20.4102 39.7461-21.2402 39.0137-21.9238L28.6621-31.9824L21.6797-37.793L30.7617-37.3535L54.834-37.3535C67.9688-37.3535 74.5605-30.2734 74.5605-20.2637C74.5605-10.2539 67.9688-2.63672 54.834-2.63672L47.0703-2.63672C44.6289-2.63672 43.0664-0.878906 43.0664 1.26953C43.0664 3.4668 44.6289 5.22461 47.0703 5.22461L54.834 5.22461C72.7051 5.22461 82.4219-4.78516 82.4219-19.8242Z"/>
  </g>
  <g id="Light-S" transform="matrix(1 0 0 1 1107.38 696)">
   <path d="M81.7383-20.3125C81.7383-34.6191 71.9727-44.4336 55.1758-44.4336L27.5879-44.4336L18.75-44.0918L26.1719-50.6348L37.7441-61.9629C38.2812-62.5 38.5742-63.1836 38.5742-64.0137C38.5742-65.7715 37.3535-66.9922 35.5957-66.9922C34.8633-66.9922 33.9844-66.6504 33.3984-66.0645L10.7422-43.7012C10.1074-43.0664 9.76562-42.2852 9.76562-41.4551C9.76562-40.625 10.1074-39.8926 10.7422-39.2578L33.3984-16.8945C33.9844-16.3086 34.8633-15.9668 35.5957-15.9668C37.3535-15.9668 38.5742-17.1875 38.5742-18.8965C38.5742-19.7754 38.2812-20.459 37.7441-20.9473L26.1719-32.3242L18.75-38.8184L27.5879-38.4766L55.6641-38.4766C68.6523-38.4766 75.7812-31.2012 75.7812-20.6055C75.7812-10.0586 68.6523-2.39258 55.6641-2.39258L45.9961-2.39258C44.1406-2.39258 42.9688-1.07422 42.9688 0.585938C42.9688 2.24609 44.1895 3.56445 45.9961 3.56445L55.7129 3.56445C72.2168 3.56445 81.7383-6.00586 81.7383-20.3125Z"/>
  </g>
  <g id="Thin-S" transform="matrix(1 0 0 1 811.134 696)">
   <path d="M80.8105-20.9473C80.8105-34.375 71.4844-43.4082 56.6406-43.4082L23.4375-43.4082L14.9902-43.2129L22.9004-50.6348L36.0352-63.7207C36.3281-64.0137 36.5234-64.4531 36.5234-64.9902C36.5234-65.918 35.791-66.6992 34.7656-66.6992C34.2773-66.6992 33.8379-66.5039 33.4961-66.1621L10.3516-42.9688C9.96094-42.627 9.76562-42.1875 9.76562-41.6992C9.76562-41.2109 9.96094-40.7715 10.3516-40.4297L33.4961-17.2363C33.8379-16.8945 34.2773-16.6992 34.7656-16.6992C35.791-16.6992 36.5234-17.4316 36.5234-18.4082C36.5234-18.9453 36.3281-19.3848 36.0352-19.6777L22.9004-32.7148L14.9902-40.1855L23.4375-39.9902L56.7871-39.9902C69.4824-39.9902 77.3438-32.373 77.3438-21.0938C77.3438-9.81445 69.4824-2.05078 56.7871-2.05078L44.5801-2.05078C43.5059-2.05078 42.8711-1.31836 42.8711-0.341797C42.8711 0.634766 43.5547 1.36719 44.5801 1.36719L56.8359 1.36719C71.582 1.36719 80.8105-7.56836 80.8105-20.9473Z"/>
  </g>
  <g id="Ultralight-S" transform="matrix(1 0 0 1 514.667 696)">
   <path d="M80.3223-21.2891C80.3223-34.2773 71.1914-42.8711 57.373-42.8711L21.2891-42.8711L13.1348-42.7734L21.1914-50.6836L35.1562-64.6484C35.3516-64.7949 35.4492-65.1367 35.4492-65.4785C35.4492-66.0645 35.0098-66.5527 34.3262-66.5527C33.9844-66.5527 33.7402-66.4062 33.5449-66.2109L10.1074-42.627C9.86328-42.3828 9.76562-42.1387 9.76562-41.7969C9.76562-41.5039 9.86328-41.2598 10.1074-41.0156L33.5449-17.4316C33.7402-17.2363 33.9844-17.0898 34.3262-17.0898C35.0098-17.0898 35.4492-17.5781 35.4492-18.1641C35.4492-18.5059 35.3516-18.8477 35.1562-18.9941L21.1914-32.959L13.1348-40.8691L21.2891-40.7227L57.3242-40.7227C69.9219-40.7227 78.1738-32.959 78.1738-21.3379C78.1738-9.7168 69.9219-1.9043 57.3242-1.9043L43.7988-1.9043C43.2129-1.9043 42.7734-1.41602 42.7734-0.830078C42.7734-0.195312 43.2129 0.244141 43.8477 0.244141L57.4219 0.244141C71.2402 0.244141 80.3223-8.34961 80.3223-21.2891Z"/>
  </g>
 </g>
</svg>
